<?xml version="1.0" encoding="utf-8" standalone="no"?>
<!DOCTYPE svg PUBLIC "-//W3C//DTD SVG 1.1//EN"
  "http://www.w3.org/Graphics/SVG/1.1/DTD/svg11.dtd">
<svg xmlns:xlink="http://www.w3.org/1999/xlink" width="341.938983pt" height="833.204853pt" viewBox="0 0 341.938983 833.204853" xmlns="http://www.w3.org/2000/svg" version="1.1">
 <metadata>
  <rdf:RDF xmlns:dc="http://purl.org/dc/elements/1.1/" xmlns:cc="http://creativecommons.org/ns#" xmlns:rdf="http://www.w3.org/1999/02/22-rdf-syntax-ns#">
   <cc:Work>
    <dc:type rdf:resource="http://purl.org/dc/dcmitype/StillImage"/>
    <dc:format>image/svg+xml</dc:format>
    <dc:creator>
     <cc:Agent>
      <dc:title>Matplotlib v3.11.1, https://matplotlib.org/</dc:title>
     </cc:Agent>
    </dc:creator>
   </cc:Work>
  </rdf:RDF>
 </metadata>
 <defs>
  <style type="text/css">*{stroke-linejoin: round; stroke-linecap: butt}</style>
 </defs>
 <g id="figure_1">
  <g id="patch_1">
   <path d="M 0 833.204853
L 341.938983 833.204853
L 341.938983 0
L 0 0
z
" style="fill: #ffffff"/>
  </g>
  <g id="axes_1">
   <g id="line2d_1">
    <path d="M 27.659946 51.069283
L 40.590131 62.075778
L 52.801972 72.179229
L 63.577126 80.807552
L 73.633936 88.568451
L 82.254059 94.95431
L 90.155838 100.55553
L 98.057618 105.877688
L 105.241054 110.43873
L 111.706146 114.287806
L 118.171238 117.865251
L 123.917987 120.792701
L 129.664735 123.45928
L 134.693141 125.560609
L 139.721546 127.429511
L 144.749951 129.051225
L 149.778356 130.411913
L 154.088417 131.361002
L 158.398479 132.102453
L 162.70854 132.630813
L 167.018602 132.942079
L 171.328663 133.033847
L 175.638725 132.9054
L 179.948786 132.55774
L 184.258848 131.993546
L 188.568909 131.217073
L 192.878971 130.233999
L 197.907376 128.835223
L 202.935781 127.177323
L 207.964186 125.274297
L 212.992591 123.141002
L 218.73934 120.440571
L 224.486089 117.482098
L 230.232837 114.287806
L 236.697929 110.43873
L 243.881365 105.877688
L 251.064801 101.051484
L 258.966581 95.474045
L 267.586704 89.110592
L 276.92517 81.934748
L 286.98198 73.92813
L 298.475478 64.48075
L 310.687319 54.154946
L 314.279037 51.069283
L 314.279037 51.069283
" clip-path="url(#p28c6c51e28)" style="fill: none; stroke: #3a5a7c; stroke-width: 2.8; stroke-linecap: square"/>
   </g>
   <g id="line2d_2">
    <path d="M 86.669759 217.334344
L 255.269224 217.334344
" clip-path="url(#p28c6c51e28)" style="fill: none; stroke: #28776b; stroke-width: 4"/>
   </g>
   <g id="line2d_3">
    <path d="M 170.969492 301.634077
L 272.12917 85.653953
" clip-path="url(#p28c6c51e28)" style="fill: none; stroke: #c0603c; stroke-opacity: 0.6; stroke-width: 1.5; stroke-linecap: square"/>
   </g>
   <g id="patch_2">
    <path d="M 18.701839 217.334344
Q 170.971302 217.334344 321.899124 217.334344
" style="fill: none; stroke: #bbc4ce; stroke-width: 1.2; stroke-linecap: round"/>
    <path d="M 316.699124 214.734344
L 321.899124 217.334344
L 316.699124 219.934344
" style="fill: none; stroke: #bbc4ce; stroke-width: 1.2; stroke-linecap: round"/>
   </g>
   <g id="patch_3">
    <path d="M 170.969492 312.281459
Q 170.969492 181.507487 170.969492 52.075157
" style="fill: none; stroke: #bbc4ce; stroke-width: 1.2; stroke-linecap: round"/>
    <path d="M 168.369492 57.275157
L 170.969492 52.075157
L 173.569492 57.275157
" style="fill: none; stroke: #bbc4ce; stroke-width: 1.2; stroke-linecap: round"/>
   </g>
   <g id="text_1">
    <!-- $X_s$ -->
    <g style="fill: #64748b" transform="translate(305.718002 235.037288) scale(0.16 -0.16)">
     <defs>
      <path id="Cmmi10-85" d="M 231 0
Q 166 0 166 84
Q 169 100 180 140
Q 191 181 208 203
Q 225 225 256 225
Q 838 225 1253 659
Q 1259 666 1267 669
Q 1275 672 1275 672
L 2675 2181
L 1913 4019
Q 1847 4103 1700 4125
Q 1553 4147 1356 4147
Q 1294 4147 1294 4231
Q 1316 4313 1328 4342
Q 1341 4372 1403 4372
L 3003 4372
Q 3066 4372 3066 4288
Q 3063 4272 3052 4231
Q 3041 4191 3023 4169
Q 3006 4147 2975 4147
Q 2856 4147 2729 4108
Q 2603 4069 2553 3981
L 3103 2656
L 4153 3781
Q 4163 3803 4197 3858
Q 4231 3913 4231 3963
Q 4231 4056 4150 4101
Q 4069 4147 3956 4147
Q 3891 4147 3891 4231
Q 3913 4313 3925 4342
Q 3938 4372 4000 4372
L 5388 4372
Q 5422 4372 5437 4347
Q 5453 4322 5453 4288
Q 5450 4272 5440 4234
Q 5431 4197 5415 4172
Q 5400 4147 5369 4147
Q 5072 4147 4823 4039
Q 4575 3931 4366 3713
Q 4363 3709 4358 3707
Q 4353 3706 4347 3700
L 3188 2450
L 4063 353
Q 4166 225 4622 225
Q 4684 225 4684 141
Q 4663 56 4648 28
Q 4634 0 4575 0
L 2975 0
Q 2913 0 2913 84
Q 2916 100 2925 139
Q 2934 178 2951 201
Q 2969 225 2994 225
Q 3119 225 3247 264
Q 3375 303 3425 391
L 2759 1984
L 1466 588
Q 1456 566 1422 512
Q 1388 459 1388 409
Q 1388 316 1475 270
Q 1563 225 1663 225
Q 1728 225 1728 141
Q 1706 50 1693 25
Q 1681 0 1619 0
L 231 0
z
" transform="scale(0.015625)"/>
      <path id="Cmmi10-58" d="M 556 391
Q 728 97 1247 97
Q 1472 97 1675 173
Q 1878 250 2011 403
Q 2144 556 2144 775
Q 2144 941 2025 1047
Q 1906 1153 1734 1191
L 1388 1259
Q 1150 1319 997 1481
Q 844 1644 844 1875
Q 844 2159 998 2378
Q 1153 2597 1406 2712
Q 1659 2828 1931 2828
Q 2222 2828 2451 2689
Q 2681 2550 2681 2278
Q 2681 2131 2598 2018
Q 2516 1906 2369 1906
Q 2284 1906 2223 1961
Q 2163 2016 2163 2100
Q 2163 2175 2205 2245
Q 2247 2316 2317 2358
Q 2388 2400 2463 2400
Q 2406 2538 2251 2600
Q 2097 2663 1919 2663
Q 1756 2663 1593 2597
Q 1431 2531 1332 2404
Q 1234 2278 1234 2106
Q 1234 1991 1315 1903
Q 1397 1816 1516 1778
L 1888 1703
Q 2066 1666 2214 1570
Q 2363 1475 2448 1329
Q 2534 1184 2534 997
Q 2534 759 2401 528
Q 2269 297 2075 159
Q 1734 -72 1241 -72
Q 900 -72 615 84
Q 331 241 331 550
Q 331 725 432 854
Q 534 984 709 984
Q 813 984 883 921
Q 953 859 953 756
Q 953 609 843 500
Q 734 391 588 391
L 556 391
z
" transform="scale(0.015625)"/>
     </defs>
     <use xlink:href="#Cmmi10-85" transform="translate(0 0.6875)"/>
     <use xlink:href="#Cmmi10-58" transform="translate(82.8125 -14.312462) scale(0.7)"/>
    </g>
   </g>
   <g id="text_2">
    <!-- $X_0$ -->
    <g style="fill: #64748b" transform="translate(177.71347 52.949866) scale(0.16 -0.16)">
     <defs>
      <path id="Cmr10-28" d="M 1600 -141
Q 816 -141 533 504
Q 250 1150 250 2041
Q 250 2597 351 3087
Q 453 3578 754 3920
Q 1056 4263 1600 4263
Q 2022 4263 2290 4056
Q 2559 3850 2700 3523
Q 2841 3197 2892 2823
Q 2944 2450 2944 2041
Q 2944 1491 2842 1011
Q 2741 531 2444 195
Q 2147 -141 1600 -141
z
M 1600 25
Q 1956 25 2131 390
Q 2306 756 2347 1200
Q 2388 1644 2388 2144
Q 2388 2625 2347 3031
Q 2306 3438 2132 3767
Q 1959 4097 1600 4097
Q 1238 4097 1063 3765
Q 888 3434 847 3029
Q 806 2625 806 2144
Q 806 1788 823 1472
Q 841 1156 916 820
Q 991 484 1158 254
Q 1325 25 1600 25
z
" transform="scale(0.015625)"/>
     </defs>
     <use xlink:href="#Cmmi10-85" transform="translate(0 0.6875)"/>
     <use xlink:href="#Cmr10-28" transform="translate(82.8125 -14.312462) scale(0.7)"/>
    </g>
   </g>
   <g id="text_3">
    <!-- Lorentz → Poincaré -->
    <g style="fill: #1e2a36" transform="translate(19.229973 21.758965) scale(0.14 -0.14)">
     <defs>
      <path id="Arial-BoldMT-2f" d="M 491 0
L 491 4544
L 1416 4544
L 1416 772
L 3716 772
L 3716 0
L 491 0
z
" transform="scale(0.015625)"/>
      <path id="Arial-BoldMT-52" d="M 256 1706
Q 256 2144 472 2553
Q 688 2963 1083 3178
Q 1478 3394 1966 3394
Q 2719 3394 3200 2905
Q 3681 2416 3681 1669
Q 3681 916 3195 420
Q 2709 -75 1972 -75
Q 1516 -75 1102 131
Q 688 338 472 736
Q 256 1134 256 1706
z
M 1156 1659
Q 1156 1166 1390 903
Q 1625 641 1969 641
Q 2313 641 2545 903
Q 2778 1166 2778 1666
Q 2778 2153 2545 2415
Q 2313 2678 1969 2678
Q 1625 2678 1390 2415
Q 1156 2153 1156 1659
z
" transform="scale(0.015625)"/>
      <path id="Arial-BoldMT-55" d="M 1300 0
L 422 0
L 422 3319
L 1238 3319
L 1238 2847
Q 1447 3181 1614 3287
Q 1781 3394 1994 3394
Q 2294 3394 2572 3228
L 2300 2463
Q 2078 2606 1888 2606
Q 1703 2606 1575 2504
Q 1447 2403 1373 2137
Q 1300 1872 1300 1025
L 1300 0
z
" transform="scale(0.015625)"/>
      <path id="Arial-BoldMT-48" d="M 2381 1056
L 3256 909
Q 3088 428 2723 176
Q 2359 -75 1813 -75
Q 947 -75 531 491
Q 203 944 203 1634
Q 203 2459 634 2926
Q 1066 3394 1725 3394
Q 2466 3394 2894 2905
Q 3322 2416 3303 1406
L 1103 1406
Q 1113 1016 1316 798
Q 1519 581 1822 581
Q 2028 581 2168 693
Q 2309 806 2381 1056
z
M 2431 1944
Q 2422 2325 2234 2523
Q 2047 2722 1778 2722
Q 1491 2722 1303 2513
Q 1116 2303 1119 1944
L 2431 1944
z
" transform="scale(0.015625)"/>
      <path id="Arial-BoldMT-51" d="M 3478 0
L 2600 0
L 2600 1694
Q 2600 2231 2544 2389
Q 2488 2547 2361 2634
Q 2234 2722 2056 2722
Q 1828 2722 1647 2597
Q 1466 2472 1398 2265
Q 1331 2059 1331 1503
L 1331 0
L 453 0
L 453 3319
L 1269 3319
L 1269 2831
Q 1703 3394 2363 3394
Q 2653 3394 2893 3289
Q 3134 3184 3257 3021
Q 3381 2859 3429 2653
Q 3478 2447 3478 2063
L 3478 0
z
" transform="scale(0.015625)"/>
      <path id="Arial-BoldMT-57" d="M 1981 3319
L 1981 2619
L 1381 2619
L 1381 1281
Q 1381 875 1398 808
Q 1416 741 1477 697
Q 1538 653 1625 653
Q 1747 653 1978 738
L 2053 56
Q 1747 -75 1359 -75
Q 1122 -75 931 4
Q 741 84 652 211
Q 563 338 528 553
Q 500 706 500 1172
L 500 2619
L 97 2619
L 97 3319
L 500 3319
L 500 3978
L 1381 4491
L 1381 3319
L 1981 3319
z
" transform="scale(0.015625)"/>
      <path id="Arial-BoldMT-5d" d="M 106 0
L 106 684
L 1350 2113
Q 1656 2463 1803 2609
Q 1650 2600 1400 2597
L 228 2591
L 228 3319
L 2972 3319
L 2972 2697
L 1703 1234
L 1256 750
Q 1622 772 1709 772
L 3069 772
L 3069 0
L 106 0
z
" transform="scale(0.015625)"/>
      <path id="Arial-BoldMT-3" transform="scale(0.015625)"/>
      <path id="Arial-BoldMT-13a" d="M 4859 2738
Q 5275 2284 5578 2048
Q 5881 1813 6150 1697
L 6150 1556
Q 5841 1406 5550 1173
Q 5259 941 4856 491
L 4616 491
Q 4909 1119 5231 1456
L 247 1456
L 247 1772
L 5231 1772
Q 4994 2072 4900 2220
Q 4806 2369 4622 2738
L 4859 2738
z
" transform="scale(0.015625)"/>
      <path id="Arial-BoldMT-33" d="M 466 0
L 466 4581
L 1950 4581
Q 2794 4581 3050 4513
Q 3444 4409 3709 4064
Q 3975 3719 3975 3172
Q 3975 2750 3822 2462
Q 3669 2175 3433 2011
Q 3197 1847 2953 1794
Q 2622 1728 1994 1728
L 1391 1728
L 1391 0
L 466 0
z
M 1391 3806
L 1391 2506
L 1897 2506
Q 2444 2506 2628 2578
Q 2813 2650 2917 2803
Q 3022 2956 3022 3159
Q 3022 3409 2875 3571
Q 2728 3734 2503 3775
Q 2338 3806 1838 3806
L 1391 3806
z
" transform="scale(0.015625)"/>
      <path id="Arial-BoldMT-4c" d="M 459 3769
L 459 4581
L 1338 4581
L 1338 3769
L 459 3769
z
M 459 0
L 459 3319
L 1338 3319
L 1338 0
L 459 0
z
" transform="scale(0.015625)"/>
      <path id="Arial-BoldMT-46" d="M 3353 2338
L 2488 2181
Q 2444 2441 2289 2572
Q 2134 2703 1888 2703
Q 1559 2703 1364 2476
Q 1169 2250 1169 1719
Q 1169 1128 1367 884
Q 1566 641 1900 641
Q 2150 641 2309 783
Q 2469 925 2534 1272
L 3397 1125
Q 3263 531 2881 228
Q 2500 -75 1859 -75
Q 1131 -75 698 384
Q 266 844 266 1656
Q 266 2478 700 2936
Q 1134 3394 1875 3394
Q 2481 3394 2839 3133
Q 3197 2872 3353 2338
z
" transform="scale(0.015625)"/>
      <path id="Arial-BoldMT-44" d="M 1116 2306
L 319 2450
Q 453 2931 781 3162
Q 1109 3394 1756 3394
Q 2344 3394 2631 3255
Q 2919 3116 3036 2902
Q 3153 2688 3153 2116
L 3144 1091
Q 3144 653 3186 445
Q 3228 238 3344 0
L 2475 0
Q 2441 88 2391 259
Q 2369 338 2359 363
Q 2134 144 1878 34
Q 1622 -75 1331 -75
Q 819 -75 523 203
Q 228 481 228 906
Q 228 1188 362 1408
Q 497 1628 739 1745
Q 981 1863 1438 1950
Q 2053 2066 2291 2166
L 2291 2253
Q 2291 2506 2166 2614
Q 2041 2722 1694 2722
Q 1459 2722 1328 2630
Q 1197 2538 1116 2306
z
M 2291 1594
Q 2122 1538 1756 1459
Q 1391 1381 1278 1306
Q 1106 1184 1106 997
Q 1106 813 1243 678
Q 1381 544 1594 544
Q 1831 544 2047 700
Q 2206 819 2256 991
Q 2291 1103 2291 1419
L 2291 1594
z
" transform="scale(0.015625)"/>
      <path id="Arial-BoldMT-70" d="M 2381 1056
L 3256 909
Q 3088 428 2723 176
Q 2359 -75 1813 -75
Q 947 -75 531 491
Q 203 944 203 1634
Q 203 2459 634 2926
Q 1066 3394 1725 3394
Q 2466 3394 2894 2905
Q 3322 2416 3303 1406
L 1103 1406
Q 1113 1016 1316 798
Q 1519 581 1822 581
Q 2028 581 2168 693
Q 2309 806 2381 1056
z
M 2431 1944
Q 2422 2325 2234 2523
Q 2047 2722 1778 2722
Q 1491 2722 1303 2513
Q 1116 2303 1119 1944
L 2431 1944
z
M 1309 3725
L 1741 4659
L 2725 4659
L 1866 3725
L 1309 3725
z
" transform="scale(0.015625)"/>
     </defs>
     <use xlink:href="#Arial-BoldMT-2f"/>
     <use xlink:href="#Arial-BoldMT-52" transform="translate(61.078125 0)"/>
     <use xlink:href="#Arial-BoldMT-55" transform="translate(122.15625 0)"/>
     <use xlink:href="#Arial-BoldMT-48" transform="translate(161.078125 0)"/>
     <use xlink:href="#Arial-BoldMT-51" transform="translate(216.6875 0)"/>
     <use xlink:href="#Arial-BoldMT-57" transform="translate(277.765625 0)"/>
     <use xlink:href="#Arial-BoldMT-5d" transform="translate(311.0625 0)"/>
     <use xlink:href="#Arial-BoldMT-3" transform="translate(361.0625 0)"/>
     <use xlink:href="#Arial-BoldMT-13a" transform="translate(388.84375 0)"/>
     <use xlink:href="#Arial-BoldMT-3" transform="translate(488.84375 0)"/>
     <use xlink:href="#Arial-BoldMT-33" transform="translate(516.625 0)"/>
     <use xlink:href="#Arial-BoldMT-52" transform="translate(583.328125 0)"/>
     <use xlink:href="#Arial-BoldMT-4c" transform="translate(644.40625 0)"/>
     <use xlink:href="#Arial-BoldMT-51" transform="translate(672.1875 0)"/>
     <use xlink:href="#Arial-BoldMT-46" transform="translate(733.265625 0)"/>
     <use xlink:href="#Arial-BoldMT-44" transform="translate(788.875 0)"/>
     <use xlink:href="#Arial-BoldMT-55" transform="translate(844.484375 0)"/>
     <use xlink:href="#Arial-BoldMT-70" transform="translate(883.40625 0)"/>
    </g>
   </g>
   <g id="text_4">
    <!-- $-X_0^2+X_s^2=-1,\quad X_0&gt;0$ -->
    <g style="fill: #3a5a7c" transform="translate(19.229973 41.990901) scale(0.16 -0.16)">
     <defs>
      <path id="Cmsy10-11" d="M 653 1472
Q 600 1472 565 1512
Q 531 1553 531 1600
Q 531 1647 565 1687
Q 600 1728 653 1728
L 4325 1728
Q 4375 1728 4408 1687
Q 4441 1647 4441 1600
Q 4441 1553 4408 1512
Q 4375 1472 4325 1472
L 653 1472
z
" transform="scale(0.015625)"/>
      <path id="Cmr10-31" d="M 319 0
L 319 172
Q 319 188 331 206
L 1325 1306
Q 1550 1550 1690 1715
Q 1831 1881 1968 2097
Q 2106 2313 2186 2536
Q 2266 2759 2266 3009
Q 2266 3272 2169 3511
Q 2072 3750 1880 3894
Q 1688 4038 1416 4038
Q 1138 4038 916 3870
Q 694 3703 603 3438
Q 628 3444 672 3444
Q 816 3444 917 3347
Q 1019 3250 1019 3097
Q 1019 2950 917 2848
Q 816 2747 672 2747
Q 522 2747 420 2851
Q 319 2956 319 3097
Q 319 3338 409 3548
Q 500 3759 670 3923
Q 841 4088 1055 4175
Q 1269 4263 1509 4263
Q 1875 4263 2190 4108
Q 2506 3953 2690 3670
Q 2875 3388 2875 3009
Q 2875 2731 2753 2481
Q 2631 2231 2440 2026
Q 2250 1822 1953 1562
Q 1656 1303 1563 1216
L 838 519
L 1453 519
Q 1906 519 2211 526
Q 2516 534 2534 550
Q 2609 631 2688 1141
L 2875 1141
L 2694 0
L 319 0
z
" transform="scale(0.015625)"/>
      <path id="Cmr10-4c" d="M 481 1472
Q 428 1472 393 1512
Q 359 1553 359 1600
Q 359 1647 393 1687
Q 428 1728 481 1728
L 2363 1728
L 2363 3616
Q 2363 3666 2400 3698
Q 2438 3731 2491 3731
Q 2538 3731 2578 3698
Q 2619 3666 2619 3616
L 2619 1728
L 4500 1728
Q 4547 1728 4581 1687
Q 4616 1647 4616 1600
Q 4616 1553 4581 1512
Q 4547 1472 4500 1472
L 2619 1472
L 2619 -416
Q 2619 -466 2578 -498
Q 2538 -531 2491 -531
Q 2438 -531 2400 -498
Q 2363 -466 2363 -416
L 2363 1472
L 481 1472
z
" transform="scale(0.015625)"/>
      <path id="Cmr10-29" d="M 481 850
Q 428 850 393 890
Q 359 931 359 978
Q 359 1031 393 1068
Q 428 1106 481 1106
L 4500 1106
Q 4547 1106 4581 1068
Q 4616 1031 4616 978
Q 4616 931 4581 890
Q 4547 850 4500 850
L 481 850
z
M 481 2094
Q 428 2094 393 2131
Q 359 2169 359 2222
Q 359 2269 393 2309
Q 428 2350 481 2350
L 4500 2350
Q 4547 2350 4581 2309
Q 4616 2269 4616 2222
Q 4616 2169 4581 2131
Q 4547 2094 4500 2094
L 481 2094
z
" transform="scale(0.015625)"/>
      <path id="Cmr10-64" d="M 594 0
L 594 225
Q 1394 225 1394 428
L 1394 3788
Q 1063 3628 556 3628
L 556 3853
Q 1341 3853 1741 4263
L 1831 4263
Q 1853 4263 1873 4245
Q 1894 4228 1894 4206
L 1894 428
Q 1894 225 2694 225
L 2694 0
L 594 0
z
" transform="scale(0.015625)"/>
      <path id="Cmmi10-2c" d="M 634 -1153
Q 634 -1125 659 -1100
Q 891 -878 1019 -587
Q 1147 -297 1147 25
L 1147 103
Q 1044 0 891 0
Q 744 0 641 103
Q 538 206 538 353
Q 538 503 641 603
Q 744 703 891 703
Q 1119 703 1216 492
Q 1313 281 1313 25
Q 1313 -331 1170 -651
Q 1028 -972 769 -1228
Q 744 -1241 728 -1241
Q 697 -1241 665 -1212
Q 634 -1184 634 -1153
z
" transform="scale(0.015625)"/>
      <path id="Cmmi10-6b" d="M 531 -128
Q 531 -47 616 -6
L 4013 1600
L 594 3219
Q 531 3238 531 3328
Q 531 3372 567 3414
Q 603 3456 659 3456
Q 672 3456 709 3444
L 4384 1709
Q 4441 1681 4441 1600
Q 4441 1516 4366 1484
L 709 -244
Q 672 -256 659 -256
Q 603 -256 567 -214
Q 531 -172 531 -128
z
" transform="scale(0.015625)"/>
     </defs>
     <use xlink:href="#Cmsy10-11" transform="translate(0 0.084203)"/>
     <use xlink:href="#Cmmi10-85" transform="translate(77.685547 0.084203)"/>
     <use xlink:href="#Cmr10-31" transform="translate(176.824479 41.373438) scale(0.7)"/>
     <use xlink:href="#Cmr10-28" transform="translate(160.498047 -30.253125) scale(0.7)"/>
     <use xlink:href="#Cmr10-4c" transform="translate(237.544951 0.084203)"/>
     <use xlink:href="#Cmmi10-85" transform="translate(335.230556 0.084203)"/>
     <use xlink:href="#Cmr10-31" transform="translate(434.369487 41.373438) scale(0.7)"/>
     <use xlink:href="#Cmmi10-58" transform="translate(418.043056 -24.637514) scale(0.7)"/>
     <use xlink:href="#Cmr10-29" transform="translate(495.08996 0.084203)"/>
     <use xlink:href="#Cmsy10-11" transform="translate(592.775564 0.084203)"/>
     <use xlink:href="#Cmr10-64" transform="translate(670.461111 0.084203)"/>
     <use xlink:href="#Cmmi10-2c" transform="translate(720.461111 0.084203)"/>
     <use xlink:href="#Cmmi10-85" transform="translate(868.147001 0.084203)"/>
     <use xlink:href="#Cmr10-28" transform="translate(950.959501 -14.915759) scale(0.7)"/>
     <use xlink:href="#Cmmi10-6b" transform="translate(1011.679974 0.084203)"/>
     <use xlink:href="#Cmr10-28" transform="translate(1109.365578 0.084203)"/>
    </g>
   </g>
   <g id="text_5">
    <!-- $-1$ -->
    <g style="fill: #28776b" transform="translate(76.429759 238.409277) scale(0.16 -0.16)">
     <use xlink:href="#Cmsy10-11" transform="translate(0 0.390625)"/>
     <use xlink:href="#Cmr10-64" transform="translate(77.685547 0.390625)"/>
    </g>
   </g>
   <g id="text_6">
    <!-- $1$ -->
    <g style="fill: #28776b" transform="translate(251.269224 238.409277) scale(0.16 -0.16)">
     <use xlink:href="#Cmr10-64" transform="translate(0 0.390625)"/>
    </g>
   </g>
   <g id="text_7">
    <!-- Inside the ball · boundary excluded -->
    <g style="fill: #28776b" transform="translate(77.915117 350.527921) scale(0.12 -0.12)">
     <defs>
      <path id="ArialMT-2c" d="M 597 0
L 597 4581
L 1203 4581
L 1203 0
L 597 0
z
" transform="scale(0.015625)"/>
      <path id="ArialMT-51" d="M 422 0
L 422 3319
L 928 3319
L 928 2847
Q 1294 3394 1984 3394
Q 2284 3394 2536 3286
Q 2788 3178 2913 3003
Q 3038 2828 3088 2588
Q 3119 2431 3119 2041
L 3119 0
L 2556 0
L 2556 2019
Q 2556 2363 2490 2533
Q 2425 2703 2258 2804
Q 2091 2906 1866 2906
Q 1506 2906 1245 2678
Q 984 2450 984 1813
L 984 0
L 422 0
z
" transform="scale(0.015625)"/>
      <path id="ArialMT-56" d="M 197 991
L 753 1078
Q 800 744 1014 566
Q 1228 388 1613 388
Q 2000 388 2187 545
Q 2375 703 2375 916
Q 2375 1106 2209 1216
Q 2094 1291 1634 1406
Q 1016 1563 777 1677
Q 538 1791 414 1992
Q 291 2194 291 2438
Q 291 2659 392 2848
Q 494 3038 669 3163
Q 800 3259 1026 3326
Q 1253 3394 1513 3394
Q 1903 3394 2198 3281
Q 2494 3169 2634 2976
Q 2775 2784 2828 2463
L 2278 2388
Q 2241 2644 2061 2787
Q 1881 2931 1553 2931
Q 1166 2931 1000 2803
Q 834 2675 834 2503
Q 834 2394 903 2306
Q 972 2216 1119 2156
Q 1203 2125 1616 2013
Q 2213 1853 2448 1751
Q 2684 1650 2818 1456
Q 2953 1263 2953 975
Q 2953 694 2789 445
Q 2625 197 2315 61
Q 2006 -75 1616 -75
Q 969 -75 630 194
Q 291 463 197 991
z
" transform="scale(0.015625)"/>
      <path id="ArialMT-4c" d="M 425 3934
L 425 4581
L 988 4581
L 988 3934
L 425 3934
z
M 425 0
L 425 3319
L 988 3319
L 988 0
L 425 0
z
" transform="scale(0.015625)"/>
      <path id="ArialMT-47" d="M 2575 0
L 2575 419
Q 2259 -75 1647 -75
Q 1250 -75 917 144
Q 584 363 401 755
Q 219 1147 219 1656
Q 219 2153 384 2558
Q 550 2963 881 3178
Q 1213 3394 1622 3394
Q 1922 3394 2156 3267
Q 2391 3141 2538 2938
L 2538 4581
L 3097 4581
L 3097 0
L 2575 0
z
M 797 1656
Q 797 1019 1065 703
Q 1334 388 1700 388
Q 2069 388 2326 689
Q 2584 991 2584 1609
Q 2584 2291 2321 2609
Q 2059 2928 1675 2928
Q 1300 2928 1048 2622
Q 797 2316 797 1656
z
" transform="scale(0.015625)"/>
      <path id="ArialMT-48" d="M 2694 1069
L 3275 997
Q 3138 488 2766 206
Q 2394 -75 1816 -75
Q 1088 -75 661 373
Q 234 822 234 1631
Q 234 2469 665 2931
Q 1097 3394 1784 3394
Q 2450 3394 2872 2941
Q 3294 2488 3294 1666
Q 3294 1616 3291 1516
L 816 1516
Q 847 969 1125 678
Q 1403 388 1819 388
Q 2128 388 2347 550
Q 2566 713 2694 1069
z
M 847 1978
L 2700 1978
Q 2663 2397 2488 2606
Q 2219 2931 1791 2931
Q 1403 2931 1139 2672
Q 875 2413 847 1978
z
" transform="scale(0.015625)"/>
      <path id="ArialMT-3" transform="scale(0.015625)"/>
      <path id="ArialMT-57" d="M 1650 503
L 1731 6
Q 1494 -44 1306 -44
Q 1000 -44 831 53
Q 663 150 594 308
Q 525 466 525 972
L 525 2881
L 113 2881
L 113 3319
L 525 3319
L 525 4141
L 1084 4478
L 1084 3319
L 1650 3319
L 1650 2881
L 1084 2881
L 1084 941
Q 1084 700 1114 631
Q 1144 563 1211 522
Q 1278 481 1403 481
Q 1497 481 1650 503
z
" transform="scale(0.015625)"/>
      <path id="ArialMT-4b" d="M 422 0
L 422 4581
L 984 4581
L 984 2938
Q 1378 3394 1978 3394
Q 2347 3394 2619 3248
Q 2891 3103 3008 2847
Q 3125 2591 3125 2103
L 3125 0
L 2563 0
L 2563 2103
Q 2563 2525 2380 2717
Q 2197 2909 1863 2909
Q 1613 2909 1392 2779
Q 1172 2650 1078 2428
Q 984 2206 984 1816
L 984 0
L 422 0
z
" transform="scale(0.015625)"/>
      <path id="ArialMT-45" d="M 941 0
L 419 0
L 419 4581
L 981 4581
L 981 2947
Q 1338 3394 1891 3394
Q 2197 3394 2470 3270
Q 2744 3147 2920 2923
Q 3097 2700 3197 2384
Q 3297 2069 3297 1709
Q 3297 856 2875 390
Q 2453 -75 1863 -75
Q 1275 -75 941 416
L 941 0
z
M 934 1684
Q 934 1088 1097 822
Q 1363 388 1816 388
Q 2184 388 2453 708
Q 2722 1028 2722 1663
Q 2722 2313 2464 2622
Q 2206 2931 1841 2931
Q 1472 2931 1203 2611
Q 934 2291 934 1684
z
" transform="scale(0.015625)"/>
      <path id="ArialMT-44" d="M 2588 409
Q 2275 144 1986 34
Q 1697 -75 1366 -75
Q 819 -75 525 192
Q 231 459 231 875
Q 231 1119 342 1320
Q 453 1522 633 1644
Q 813 1766 1038 1828
Q 1203 1872 1538 1913
Q 2219 1994 2541 2106
Q 2544 2222 2544 2253
Q 2544 2597 2384 2738
Q 2169 2928 1744 2928
Q 1347 2928 1158 2789
Q 969 2650 878 2297
L 328 2372
Q 403 2725 575 2942
Q 747 3159 1072 3276
Q 1397 3394 1825 3394
Q 2250 3394 2515 3294
Q 2781 3194 2906 3042
Q 3031 2891 3081 2659
Q 3109 2516 3109 2141
L 3109 1391
Q 3109 606 3145 398
Q 3181 191 3288 0
L 2700 0
Q 2613 175 2588 409
z
M 2541 1666
Q 2234 1541 1622 1453
Q 1275 1403 1131 1340
Q 988 1278 909 1158
Q 831 1038 831 891
Q 831 666 1001 516
Q 1172 366 1500 366
Q 1825 366 2078 508
Q 2331 650 2450 897
Q 2541 1088 2541 1459
L 2541 1666
z
" transform="scale(0.015625)"/>
      <path id="ArialMT-4f" d="M 409 0
L 409 4581
L 972 4581
L 972 0
L 409 0
z
" transform="scale(0.015625)"/>
      <path id="ArialMT-101" d="M 744 1991
L 744 2631
L 1384 2631
L 1384 1991
L 744 1991
z
" transform="scale(0.015625)"/>
      <path id="ArialMT-52" d="M 213 1659
Q 213 2581 725 3025
Q 1153 3394 1769 3394
Q 2453 3394 2887 2945
Q 3322 2497 3322 1706
Q 3322 1066 3130 698
Q 2938 331 2570 128
Q 2203 -75 1769 -75
Q 1072 -75 642 372
Q 213 819 213 1659
z
M 791 1659
Q 791 1022 1069 705
Q 1347 388 1769 388
Q 2188 388 2466 706
Q 2744 1025 2744 1678
Q 2744 2294 2464 2611
Q 2184 2928 1769 2928
Q 1347 2928 1069 2612
Q 791 2297 791 1659
z
" transform="scale(0.015625)"/>
      <path id="ArialMT-58" d="M 2597 0
L 2597 488
Q 2209 -75 1544 -75
Q 1250 -75 995 37
Q 741 150 617 320
Q 494 491 444 738
Q 409 903 409 1263
L 409 3319
L 972 3319
L 972 1478
Q 972 1038 1006 884
Q 1059 663 1231 536
Q 1403 409 1656 409
Q 1909 409 2131 539
Q 2353 669 2445 892
Q 2538 1116 2538 1541
L 2538 3319
L 3100 3319
L 3100 0
L 2597 0
z
" transform="scale(0.015625)"/>
      <path id="ArialMT-55" d="M 416 0
L 416 3319
L 922 3319
L 922 2816
Q 1116 3169 1280 3281
Q 1444 3394 1641 3394
Q 1925 3394 2219 3213
L 2025 2691
Q 1819 2813 1613 2813
Q 1428 2813 1281 2702
Q 1134 2591 1072 2394
Q 978 2094 978 1738
L 978 0
L 416 0
z
" transform="scale(0.015625)"/>
      <path id="ArialMT-5c" d="M 397 -1278
L 334 -750
Q 519 -800 656 -800
Q 844 -800 956 -737
Q 1069 -675 1141 -563
Q 1194 -478 1313 -144
Q 1328 -97 1363 -6
L 103 3319
L 709 3319
L 1400 1397
Q 1534 1031 1641 628
Q 1738 1016 1872 1384
L 2581 3319
L 3144 3319
L 1881 -56
Q 1678 -603 1566 -809
Q 1416 -1088 1222 -1217
Q 1028 -1347 759 -1347
Q 597 -1347 397 -1278
z
" transform="scale(0.015625)"/>
      <path id="ArialMT-5b" d="M 47 0
L 1259 1725
L 138 3319
L 841 3319
L 1350 2541
Q 1494 2319 1581 2169
Q 1719 2375 1834 2534
L 2394 3319
L 3066 3319
L 1919 1756
L 3153 0
L 2463 0
L 1781 1031
L 1600 1309
L 728 0
L 47 0
z
" transform="scale(0.015625)"/>
      <path id="ArialMT-46" d="M 2588 1216
L 3141 1144
Q 3050 572 2676 248
Q 2303 -75 1759 -75
Q 1078 -75 664 370
Q 250 816 250 1647
Q 250 2184 428 2587
Q 606 2991 970 3192
Q 1334 3394 1763 3394
Q 2303 3394 2647 3120
Q 2991 2847 3088 2344
L 2541 2259
Q 2463 2594 2264 2762
Q 2066 2931 1784 2931
Q 1359 2931 1093 2626
Q 828 2322 828 1663
Q 828 994 1084 691
Q 1341 388 1753 388
Q 2084 388 2306 591
Q 2528 794 2588 1216
z
" transform="scale(0.015625)"/>
     </defs>
     <use xlink:href="#ArialMT-2c"/>
     <use xlink:href="#ArialMT-51" transform="translate(27.78125 0)"/>
     <use xlink:href="#ArialMT-56" transform="translate(83.390625 0)"/>
     <use xlink:href="#ArialMT-4c" transform="translate(133.390625 0)"/>
     <use xlink:href="#ArialMT-47" transform="translate(155.609375 0)"/>
     <use xlink:href="#ArialMT-48" transform="translate(211.21875 0)"/>
     <use xlink:href="#ArialMT-3" transform="translate(266.828125 0)"/>
     <use xlink:href="#ArialMT-57" transform="translate(294.609375 0)"/>
     <use xlink:href="#ArialMT-4b" transform="translate(322.390625 0)"/>
     <use xlink:href="#ArialMT-48" transform="translate(378 0)"/>
     <use xlink:href="#ArialMT-3" transform="translate(433.609375 0)"/>
     <use xlink:href="#ArialMT-45" transform="translate(461.390625 0)"/>
     <use xlink:href="#ArialMT-44" transform="translate(517 0)"/>
     <use xlink:href="#ArialMT-4f" transform="translate(572.609375 0)"/>
     <use xlink:href="#ArialMT-4f" transform="translate(594.828125 0)"/>
     <use xlink:href="#ArialMT-3" transform="translate(617.046875 0)"/>
     <use xlink:href="#ArialMT-101" transform="translate(644.828125 0)"/>
     <use xlink:href="#ArialMT-3" transform="translate(678.125 0)"/>
     <use xlink:href="#ArialMT-45" transform="translate(705.90625 0)"/>
     <use xlink:href="#ArialMT-52" transform="translate(761.515625 0)"/>
     <use xlink:href="#ArialMT-58" transform="translate(817.125 0)"/>
     <use xlink:href="#ArialMT-51" transform="translate(872.734375 0)"/>
     <use xlink:href="#ArialMT-47" transform="translate(928.34375 0)"/>
     <use xlink:href="#ArialMT-44" transform="translate(983.953125 0)"/>
     <use xlink:href="#ArialMT-55" transform="translate(1039.5625 0)"/>
     <use xlink:href="#ArialMT-5c" transform="translate(1072.859375 0)"/>
     <use xlink:href="#ArialMT-3" transform="translate(1122.859375 0)"/>
     <use xlink:href="#ArialMT-48" transform="translate(1150.640625 0)"/>
     <use xlink:href="#ArialMT-5b" transform="translate(1206.25 0)"/>
     <use xlink:href="#ArialMT-46" transform="translate(1256.25 0)"/>
     <use xlink:href="#ArialMT-4f" transform="translate(1306.25 0)"/>
     <use xlink:href="#ArialMT-58" transform="translate(1328.46875 0)"/>
     <use xlink:href="#ArialMT-47" transform="translate(1384.078125 0)"/>
     <use xlink:href="#ArialMT-48" transform="translate(1439.6875 0)"/>
     <use xlink:href="#ArialMT-47" transform="translate(1495.296875 0)"/>
    </g>
   </g>
   <g id="patch_4">
    <path d="M 268.735571 92.899428
Q 241.290398 151.496016 214.698821 208.270139
" style="fill: none; stroke: #c0603c; stroke-width: 1.8; stroke-linecap: round"/>
    <path d="M 219.258961 204.663878
L 214.698821 208.270139
L 214.549896 202.45827
" style="fill: none; stroke: #c0603c; stroke-width: 1.8; stroke-linecap: round"/>
   </g>
   <g id="text_8">
    <!-- $X$ -->
    <g style="fill: #3a5a7c" transform="translate(248.18917 71.865867) scale(0.18 -0.18)">
     <use xlink:href="#Cmmi10-85" transform="translate(0 0.6875)"/>
    </g>
   </g>
   <g id="text_9">
    <!-- $u$ -->
    <g style="fill: #28776b" transform="translate(218.04035 207.218376) scale(0.18 -0.18)">
     <defs>
      <path id="Cmmi10-60" d="M 678 697
Q 678 906 734 1126
Q 791 1347 892 1617
Q 994 1888 1069 2088
Q 1153 2322 1153 2472
Q 1153 2663 1013 2663
Q 759 2663 595 2402
Q 431 2141 353 1819
Q 341 1778 300 1778
L 225 1778
Q 172 1778 172 1838
L 172 1856
Q 275 2238 487 2533
Q 700 2828 1025 2828
Q 1253 2828 1411 2678
Q 1569 2528 1569 2297
Q 1569 2178 1516 2047
Q 1488 1969 1388 1706
Q 1288 1444 1234 1272
Q 1181 1100 1147 934
Q 1113 769 1113 603
Q 1113 391 1203 244
Q 1294 97 1497 97
Q 1906 97 2216 603
Q 2222 628 2226 651
Q 2231 675 2234 697
L 2694 2553
Q 2716 2638 2794 2698
Q 2872 2759 2963 2759
Q 3041 2759 3098 2709
Q 3156 2659 3156 2578
Q 3156 2541 3150 2528
L 2688 684
Q 2644 494 2644 372
Q 2644 97 2828 97
Q 3034 97 3136 351
Q 3238 606 3309 941
Q 3322 978 3359 978
L 3438 978
Q 3463 978 3478 956
Q 3494 934 3494 916
Q 3425 641 3361 444
Q 3297 247 3159 87
Q 3022 -72 2816 -72
Q 2613 -72 2452 39
Q 2291 150 2234 341
Q 2088 153 1894 40
Q 1700 -72 1484 -72
Q 1116 -72 897 129
Q 678 331 678 697
z
" transform="scale(0.015625)"/>
     </defs>
     <use xlink:href="#Cmmi10-60" transform="translate(0 0.8125)"/>
    </g>
   </g>
   <g id="text_10">
    <!-- $S=(-1,0)$ -->
    <g style="fill: #c0603c" transform="translate(181.928457 312.593042) scale(0.15 -0.15)">
     <defs>
      <path id="Cmmi10-43" d="M 391 -141
Q 372 -141 356 -119
Q 341 -97 341 -78
L 709 1416
Q 722 1453 763 1453
L 838 1453
Q 863 1453 877 1434
Q 891 1416 891 1388
Q 838 1169 838 997
Q 838 534 1156 309
Q 1475 84 1959 84
Q 2169 84 2372 187
Q 2575 291 2726 456
Q 2878 622 2968 826
Q 3059 1031 3059 1241
Q 3059 1466 2940 1642
Q 2822 1819 2613 1869
L 1831 2075
Q 1516 2159 1328 2414
Q 1141 2669 1141 2988
Q 1141 3372 1369 3728
Q 1597 4084 1964 4298
Q 2331 4513 2713 4513
Q 3006 4513 3251 4405
Q 3497 4297 3628 4063
L 3994 4494
Q 4031 4513 4038 4513
L 4078 4513
Q 4103 4513 4118 4491
Q 4134 4469 4134 4447
L 3763 2963
Q 3753 2919 3713 2919
L 3634 2919
Q 3578 2919 3578 2988
Q 3609 3191 3609 3341
Q 3609 3638 3507 3858
Q 3406 4078 3201 4192
Q 2997 4306 2694 4306
Q 2438 4306 2184 4159
Q 1931 4013 1775 3769
Q 1619 3525 1619 3263
Q 1619 3056 1739 2897
Q 1859 2738 2059 2681
L 2841 2478
Q 3053 2422 3211 2280
Q 3369 2138 3450 1942
Q 3531 1747 3531 1516
Q 3531 1213 3403 917
Q 3275 622 3045 378
Q 2816 134 2525 -3
Q 2234 -141 1931 -141
Q 1169 -141 838 306
L 481 -122
Q 444 -141 434 -141
L 391 -141
z
" transform="scale(0.015625)"/>
      <path id="Cmr10-77" d="M 1984 -1588
Q 1628 -1306 1370 -942
Q 1113 -578 948 -165
Q 784 247 703 697
Q 622 1147 622 1600
Q 622 2059 703 2509
Q 784 2959 951 3375
Q 1119 3791 1378 4153
Q 1638 4516 1984 4788
Q 1984 4800 2016 4800
L 2075 4800
Q 2094 4800 2109 4783
Q 2125 4766 2125 4744
Q 2125 4716 2113 4703
Q 1800 4397 1592 4047
Q 1384 3697 1257 3301
Q 1131 2906 1075 2482
Q 1019 2059 1019 1600
Q 1019 -434 2106 -1491
Q 2125 -1509 2125 -1544
Q 2125 -1559 2108 -1579
Q 2091 -1600 2075 -1600
L 2016 -1600
Q 1984 -1600 1984 -1588
z
" transform="scale(0.015625)"/>
      <path id="Cmr10-44" d="M 416 -1600
Q 359 -1600 359 -1544
Q 359 -1516 372 -1503
Q 1466 -434 1466 1600
Q 1466 3634 384 4691
Q 359 4706 359 4744
Q 359 4766 376 4783
Q 394 4800 416 4800
L 475 4800
Q 494 4800 506 4788
Q 966 4425 1272 3906
Q 1578 3388 1720 2800
Q 1863 2213 1863 1600
Q 1863 1147 1786 708
Q 1709 269 1542 -157
Q 1375 -584 1119 -945
Q 863 -1306 506 -1588
Q 494 -1600 475 -1600
L 416 -1600
z
" transform="scale(0.015625)"/>
     </defs>
     <use xlink:href="#Cmmi10-43"/>
     <use xlink:href="#Cmr10-29" transform="translate(81.279354 0)"/>
     <use xlink:href="#Cmr10-77" transform="translate(178.964958 0)"/>
     <use xlink:href="#Cmsy10-11" transform="translate(217.783318 0)"/>
     <use xlink:href="#Cmr10-64" transform="translate(295.468864 0)"/>
     <use xlink:href="#Cmmi10-2c" transform="translate(345.468864 0)"/>
     <use xlink:href="#Cmr10-28" transform="translate(393.154469 0)"/>
     <use xlink:href="#Cmr10-44" transform="translate(443.154469 0)"/>
    </g>
   </g>
   <g id="text_11">
    <!-- $u=\frac{X_s}{1+X_0}$ -->
    <g style="fill: #1e2a36" transform="translate(129.809492 377.503836) scale(0.21 -0.21)">
     <use xlink:href="#Cmmi10-60" transform="translate(0 0.755027)"/>
     <use xlink:href="#Cmr10-29" transform="translate(77.177792 0.755027)"/>
     <use xlink:href="#Cmmi10-85" transform="translate(240.113396 46.18125) scale(0.7)"/>
     <use xlink:href="#Cmmi10-58" transform="translate(298.082146 35.681277) scale(0.49)"/>
     <use xlink:href="#Cmr10-64" transform="translate(181.113396 -31.438723) scale(0.7)"/>
     <use xlink:href="#Cmr10-4c" transform="translate(230.113436 -31.438723) scale(0.7)"/>
     <use xlink:href="#Cmmi10-85" transform="translate(298.493359 -31.438723) scale(0.7)"/>
     <use xlink:href="#Cmr10-28" transform="translate(356.462109 -41.938697) scale(0.49)"/>
     <path d="M 181.113396 22.630027
L 181.113396 28.880027
L 384.966399 28.880027
L 384.966399 22.630027
L 181.113396 22.630027
z
"/>
    </g>
   </g>
   <g id="PathCollection_1">
    <defs>
     <path id="m7bc687c0b1" d="M 0 3.708099
C 0.983399 3.708099 1.926654 3.317391 2.622022 2.622022
C 3.317391 1.926654 3.708099 0.983399 3.708099 0
C 3.708099 -0.983399 3.317391 -1.926654 2.622022 -2.622022
C 1.926654 -3.317391 0.983399 -3.708099 0 -3.708099
C -0.983399 -3.708099 -1.926654 -3.317391 -2.622022 -2.622022
C -3.317391 -1.926654 -3.708099 -0.983399 -3.708099 0
C -3.708099 0.983399 -3.317391 1.926654 -2.622022 2.622022
C -1.926654 3.317391 -0.983399 3.708099 0 3.708099
z
" style="stroke: #28776b; stroke-width: 1.8"/>
    </defs>
    <g clip-path="url(#p28c6c51e28)">
     <use xlink:href="#m7bc687c0b1" x="86.669759" y="217.334344" style="fill: #ffffff; stroke: #28776b; stroke-width: 1.8"/>
     <use xlink:href="#m7bc687c0b1" x="255.269224" y="217.334344" style="fill: #ffffff; stroke: #28776b; stroke-width: 1.8"/>
    </g>
   </g>
   <g id="PathCollection_2">
    <defs>
     <path id="mdf618344b2" d="M 0 4.031129
C 1.069068 4.031129 2.094493 3.606384 2.850439 2.850439
C 3.606384 2.094493 4.031129 1.069068 4.031129 0
C 4.031129 -1.069068 3.606384 -2.094493 2.850439 -2.850439
C 2.094493 -3.606384 1.069068 -4.031129 0 -4.031129
C -1.069068 -4.031129 -2.094493 -3.606384 -2.850439 -2.850439
C -3.606384 -2.094493 -4.031129 -1.069068 -4.031129 0
C -4.031129 1.069068 -3.606384 2.094493 -2.850439 2.850439
C -2.094493 3.606384 -1.069068 4.031129 0 4.031129
z
" style="stroke: #3a5a7c"/>
    </defs>
    <g clip-path="url(#p28c6c51e28)">
     <use xlink:href="#mdf618344b2" x="272.12917" y="85.653953" style="fill: #3a5a7c; stroke: #3a5a7c"/>
    </g>
   </g>
   <g id="PathCollection_3">
    <defs>
     <path id="m000e506480" d="M 0 4.031129
C 1.069068 4.031129 2.094493 3.606384 2.850439 2.850439
C 3.606384 2.094493 4.031129 1.069068 4.031129 0
C 4.031129 -1.069068 3.606384 -2.094493 2.850439 -2.850439
C 2.094493 -3.606384 1.069068 -4.031129 0 -4.031129
C -1.069068 -4.031129 -2.094493 -3.606384 -2.850439 -2.850439
C -3.606384 -2.094493 -4.031129 -1.069068 -4.031129 0
C -4.031129 1.069068 -3.606384 2.094493 -2.850439 2.850439
C -2.094493 3.606384 -1.069068 4.031129 0 4.031129
z
" style="stroke: #28776b"/>
    </defs>
    <g clip-path="url(#p28c6c51e28)">
     <use xlink:href="#m000e506480" x="210.453374" y="217.334344" style="fill: #28776b; stroke: #28776b"/>
    </g>
   </g>
   <g id="PathCollection_4">
    <defs>
     <path id="md09ba87de2" d="M 0 4.031129
C 1.069068 4.031129 2.094493 3.606384 2.850439 2.850439
C 3.606384 2.094493 4.031129 1.069068 4.031129 0
C 4.031129 -1.069068 3.606384 -2.094493 2.850439 -2.850439
C 2.094493 -3.606384 1.069068 -4.031129 0 -4.031129
C -1.069068 -4.031129 -2.094493 -3.606384 -2.850439 -2.850439
C -3.606384 -2.094493 -4.031129 -1.069068 -4.031129 0
C -4.031129 1.069068 -3.606384 2.094493 -2.850439 2.850439
C -2.094493 3.606384 -1.069068 4.031129 0 4.031129
z
" style="stroke: #c0603c"/>
    </defs>
    <g clip-path="url(#p28c6c51e28)">
     <use xlink:href="#md09ba87de2" x="170.969492" y="301.634077" style="fill: #c0603c; stroke: #c0603c"/>
    </g>
   </g>
  </g>
  <g id="axes_2">
   <g id="line2d_4">
    <path d="M 255.269224 652.995361
L 255.162323 648.751298
L 254.84189 644.517998
L 254.308738 640.306199
L 253.56422 636.126582
L 252.610223 631.989748
L 251.449168 627.906189
L 250.083999 623.886262
L 248.518177 619.940162
L 246.755676 616.077897
L 244.800964 612.309263
L 242.658999 608.643817
L 240.335213 605.090857
L 237.835501 601.659393
L 235.166203 598.358129
L 232.334087 595.195436
L 229.346337 592.179337
L 226.210531 589.317481
L 222.934621 586.617125
L 219.526916 584.08512
L 215.99606 581.727886
L 212.351005 579.551402
L 208.600999 577.561188
L 204.75555 575.762291
L 200.824413 574.159275
L 196.817556 572.756204
L 192.745144 571.556637
L 188.617504 570.563617
L 184.445104 569.779661
L 180.238528 569.206759
L 176.008443 568.846363
L 171.765578 568.699388
L 167.520694 568.766206
L 163.284557 569.046647
L 159.067911 569.54
L 154.88145 570.245015
L 150.735792 571.159903
L 146.64145 572.282343
L 142.60881 573.60949
L 138.648099 575.137976
L 134.769362 576.863926
L 130.982436 578.782961
L 127.296927 580.890216
L 123.72218 583.180345
L 120.267264 585.647541
L 116.940939 588.285545
L 113.751642 591.087667
L 110.707463 594.046801
L 107.816121 597.155442
L 105.08495 600.405704
L 102.520876 603.789346
L 100.130403 607.297785
L 97.919594 610.922123
L 95.894056 614.653168
L 94.058925 618.481457
L 92.418856 622.397281
L 90.978009 626.390708
L 89.740037 630.451611
L 88.708082 634.56969
L 87.884759 638.7345
L 87.272158 642.935479
L 86.871831 647.161971
L 86.684795 651.403259
L 86.711523 655.648585
L 86.951948 659.887181
L 87.405459 664.108298
L 88.070907 668.301231
L 88.946605 672.455344
L 90.03033 676.560102
L 91.319335 680.605096
L 92.81035 684.580064
L 94.499594 688.474928
L 96.382782 692.279807
L 98.455139 695.985052
L 100.711407 699.581266
L 103.145866 703.059328
L 105.75234 706.410416
L 108.52422 709.626032
L 111.454474 712.698021
L 114.535671 715.61859
L 117.759997 718.380334
L 121.119274 720.976246
L 124.604982 723.399744
L 128.208281 725.644682
L 131.920031 727.705364
L 135.730819 729.576566
L 139.630981 731.253541
L 143.610623 732.732036
L 147.659654 734.008301
L 151.767804 735.079099
L 155.924653 735.941716
L 160.11966 736.593962
L 164.342183 737.034184
L 168.581516 737.261265
L 172.826904 737.274629
L 177.067582 737.074242
L 181.292794 736.660613
L 185.491823 736.03479
L 189.654021 735.198361
L 193.768831 734.153448
L 197.825816 732.902699
L 201.814688 731.449289
L 205.72533 729.796901
L 209.547824 727.949729
L 213.272474 725.912455
L 216.889835 723.690248
L 220.390731 721.288743
L 223.766285 718.714031
L 227.007934 715.972642
L 230.107457 713.071529
L 233.056994 710.018049
L 235.849063 706.819947
L 238.476583 703.485335
L 240.932891 700.022669
L 243.211756 696.440731
L 245.307398 692.748606
L 247.214504 688.955659
L 248.928235 685.071508
L 250.444246 681.106005
L 251.758692 677.069207
L 252.868238 672.971353
L 253.770071 668.822835
L 254.461904 664.634175
L 254.941981 660.415997
L 255.209086 656.178998
L 255.269224 652.995361
L 255.269224 652.995361
" clip-path="url(#p46ac156616)" style="fill: none; stroke: #3a5a7c; stroke-width: 2.8; stroke-linecap: square"/>
   </g>
   <g id="line2d_5">
    <path d="M 170.969492 737.295094
L 44.519893 652.995361
" clip-path="url(#p46ac156616)" style="fill: none; stroke-dasharray: 5.92,2.56; stroke-dashoffset: 0; stroke: #c0603c; stroke-opacity: 0.7; stroke-width: 1.6"/>
   </g>
   <g id="line2d_6">
    <path d="M 170.969492 737.295094
L 238.409277 602.415522
" clip-path="url(#p46ac156616)" style="fill: none; stroke: #c0603c; stroke-opacity: 0.6; stroke-width: 1.5; stroke-linecap: square"/>
   </g>
   <g id="patch_5">
    <path d="M 18.701839 652.995361
Q 170.971302 652.995361 321.899124 652.995361
" style="fill: none; stroke: #bbc4ce; stroke-width: 1.2; stroke-linecap: round"/>
    <path d="M 316.699124 650.395361
L 321.899124 652.995361
L 316.699124 655.595361
" style="fill: none; stroke: #bbc4ce; stroke-width: 1.2; stroke-linecap: round"/>
   </g>
   <g id="patch_6">
    <path d="M 170.969492 747.942476
Q 170.969492 617.168504 170.969492 487.736174
" style="fill: none; stroke: #bbc4ce; stroke-width: 1.2; stroke-linecap: round"/>
    <path d="M 168.369492 492.936174
L 170.969492 487.736174
L 173.569492 492.936174
" style="fill: none; stroke: #bbc4ce; stroke-width: 1.2; stroke-linecap: round"/>
   </g>
   <g id="text_12">
    <!-- $X_s$ -->
    <g style="fill: #64748b" transform="translate(305.718002 670.698305) scale(0.16 -0.16)">
     <use xlink:href="#Cmmi10-85" transform="translate(0 0.6875)"/>
     <use xlink:href="#Cmmi10-58" transform="translate(82.8125 -14.312462) scale(0.7)"/>
    </g>
   </g>
   <g id="text_13">
    <!-- $X_0$ -->
    <g style="fill: #64748b" transform="translate(177.71347 488.610883) scale(0.16 -0.16)">
     <use xlink:href="#Cmmi10-85" transform="translate(0 0.6875)"/>
     <use xlink:href="#Cmr10-28" transform="translate(82.8125 -14.312462) scale(0.7)"/>
    </g>
   </g>
   <g id="text_14">
    <!-- Sphere → stereographic plane -->
    <g style="fill: #1e2a36" transform="translate(19.229973 457.419982) scale(0.14 -0.14)">
     <defs>
      <path id="Arial-BoldMT-36" d="M 231 1491
L 1131 1578
Q 1213 1125 1461 912
Q 1709 700 2131 700
Q 2578 700 2804 889
Q 3031 1078 3031 1331
Q 3031 1494 2936 1608
Q 2841 1722 2603 1806
Q 2441 1863 1863 2006
Q 1119 2191 819 2459
Q 397 2838 397 3381
Q 397 3731 595 4036
Q 794 4341 1167 4500
Q 1541 4659 2069 4659
Q 2931 4659 3367 4281
Q 3803 3903 3825 3272
L 2900 3231
Q 2841 3584 2645 3739
Q 2450 3894 2059 3894
Q 1656 3894 1428 3728
Q 1281 3622 1281 3444
Q 1281 3281 1419 3166
Q 1594 3019 2269 2859
Q 2944 2700 3267 2529
Q 3591 2359 3773 2064
Q 3956 1769 3956 1334
Q 3956 941 3737 597
Q 3519 253 3119 86
Q 2719 -81 2122 -81
Q 1253 -81 787 320
Q 322 722 231 1491
z
" transform="scale(0.015625)"/>
      <path id="Arial-BoldMT-53" d="M 434 3319
L 1253 3319
L 1253 2831
Q 1413 3081 1684 3237
Q 1956 3394 2288 3394
Q 2866 3394 3269 2941
Q 3672 2488 3672 1678
Q 3672 847 3265 386
Q 2859 -75 2281 -75
Q 2006 -75 1782 34
Q 1559 144 1313 409
L 1313 -1263
L 434 -1263
L 434 3319
z
M 1303 1716
Q 1303 1156 1525 889
Q 1747 622 2066 622
Q 2372 622 2575 867
Q 2778 1113 2778 1672
Q 2778 2194 2568 2447
Q 2359 2700 2050 2700
Q 1728 2700 1515 2451
Q 1303 2203 1303 1716
z
" transform="scale(0.015625)"/>
      <path id="Arial-BoldMT-4b" d="M 1334 4581
L 1334 2897
Q 1759 3394 2350 3394
Q 2653 3394 2897 3281
Q 3141 3169 3264 2994
Q 3388 2819 3433 2606
Q 3478 2394 3478 1947
L 3478 0
L 2600 0
L 2600 1753
Q 2600 2275 2550 2415
Q 2500 2556 2373 2639
Q 2247 2722 2056 2722
Q 1838 2722 1666 2615
Q 1494 2509 1414 2295
Q 1334 2081 1334 1663
L 1334 0
L 456 0
L 456 4581
L 1334 4581
z
" transform="scale(0.015625)"/>
      <path id="Arial-BoldMT-56" d="M 150 947
L 1031 1081
Q 1088 825 1259 692
Q 1431 559 1741 559
Q 2081 559 2253 684
Q 2369 772 2369 919
Q 2369 1019 2306 1084
Q 2241 1147 2013 1200
Q 950 1434 666 1628
Q 272 1897 272 2375
Q 272 2806 612 3100
Q 953 3394 1669 3394
Q 2350 3394 2681 3172
Q 3013 2950 3138 2516
L 2309 2363
Q 2256 2556 2107 2659
Q 1959 2763 1684 2763
Q 1338 2763 1188 2666
Q 1088 2597 1088 2488
Q 1088 2394 1175 2328
Q 1294 2241 1995 2081
Q 2697 1922 2975 1691
Q 3250 1456 3250 1038
Q 3250 581 2869 253
Q 2488 -75 1741 -75
Q 1063 -75 667 200
Q 272 475 150 947
z
" transform="scale(0.015625)"/>
      <path id="Arial-BoldMT-4a" d="M 378 -219
L 1381 -341
Q 1406 -516 1497 -581
Q 1622 -675 1891 -675
Q 2234 -675 2406 -572
Q 2522 -503 2581 -350
Q 2622 -241 2622 53
L 2622 538
Q 2228 0 1628 0
Q 959 0 569 566
Q 263 1013 263 1678
Q 263 2513 664 2953
Q 1066 3394 1663 3394
Q 2278 3394 2678 2853
L 2678 3319
L 3500 3319
L 3500 341
Q 3500 -247 3403 -537
Q 3306 -828 3131 -993
Q 2956 -1159 2664 -1253
Q 2372 -1347 1925 -1347
Q 1081 -1347 728 -1058
Q 375 -769 375 -325
Q 375 -281 378 -219
z
M 1163 1728
Q 1163 1200 1367 954
Q 1572 709 1872 709
Q 2194 709 2416 961
Q 2638 1213 2638 1706
Q 2638 2222 2425 2472
Q 2213 2722 1888 2722
Q 1572 2722 1367 2476
Q 1163 2231 1163 1728
z
" transform="scale(0.015625)"/>
      <path id="Arial-BoldMT-4f" d="M 459 0
L 459 4581
L 1338 4581
L 1338 0
L 459 0
z
" transform="scale(0.015625)"/>
     </defs>
     <use xlink:href="#Arial-BoldMT-36"/>
     <use xlink:href="#Arial-BoldMT-53" transform="translate(66.703125 0)"/>
     <use xlink:href="#Arial-BoldMT-4b" transform="translate(127.78125 0)"/>
     <use xlink:href="#Arial-BoldMT-48" transform="translate(188.859375 0)"/>
     <use xlink:href="#Arial-BoldMT-55" transform="translate(244.46875 0)"/>
     <use xlink:href="#Arial-BoldMT-48" transform="translate(283.390625 0)"/>
     <use xlink:href="#Arial-BoldMT-3" transform="translate(339 0)"/>
     <use xlink:href="#Arial-BoldMT-13a" transform="translate(366.78125 0)"/>
     <use xlink:href="#Arial-BoldMT-3" transform="translate(466.78125 0)"/>
     <use xlink:href="#Arial-BoldMT-56" transform="translate(494.5625 0)"/>
     <use xlink:href="#Arial-BoldMT-57" transform="translate(550.171875 0)"/>
     <use xlink:href="#Arial-BoldMT-48" transform="translate(583.46875 0)"/>
     <use xlink:href="#Arial-BoldMT-55" transform="translate(639.078125 0)"/>
     <use xlink:href="#Arial-BoldMT-48" transform="translate(678 0)"/>
     <use xlink:href="#Arial-BoldMT-52" transform="translate(733.609375 0)"/>
     <use xlink:href="#Arial-BoldMT-4a" transform="translate(794.6875 0)"/>
     <use xlink:href="#Arial-BoldMT-55" transform="translate(855.765625 0)"/>
     <use xlink:href="#Arial-BoldMT-44" transform="translate(894.6875 0)"/>
     <use xlink:href="#Arial-BoldMT-53" transform="translate(950.296875 0)"/>
     <use xlink:href="#Arial-BoldMT-4b" transform="translate(1011.375 0)"/>
     <use xlink:href="#Arial-BoldMT-4c" transform="translate(1072.453125 0)"/>
     <use xlink:href="#Arial-BoldMT-46" transform="translate(1100.234375 0)"/>
     <use xlink:href="#Arial-BoldMT-3" transform="translate(1155.84375 0)"/>
     <use xlink:href="#Arial-BoldMT-53" transform="translate(1183.625 0)"/>
     <use xlink:href="#Arial-BoldMT-4f" transform="translate(1244.703125 0)"/>
     <use xlink:href="#Arial-BoldMT-44" transform="translate(1272.484375 0)"/>
     <use xlink:href="#Arial-BoldMT-51" transform="translate(1328.09375 0)"/>
     <use xlink:href="#Arial-BoldMT-48" transform="translate(1389.171875 0)"/>
    </g>
   </g>
   <g id="text_15">
    <!-- $X_0^2+X_s^2=1$ -->
    <g style="fill: #3a5a7c" transform="translate(19.229973 477.651918) scale(0.16 -0.16)">
     <use xlink:href="#Cmmi10-85" transform="translate(0 0.084203)"/>
     <use xlink:href="#Cmr10-31" transform="translate(99.138932 41.373438) scale(0.7)"/>
     <use xlink:href="#Cmr10-28" transform="translate(82.8125 -30.253125) scale(0.7)"/>
     <use xlink:href="#Cmr10-4c" transform="translate(159.859405 0.084203)"/>
     <use xlink:href="#Cmmi10-85" transform="translate(257.545009 0.084203)"/>
     <use xlink:href="#Cmr10-31" transform="translate(356.683941 41.373438) scale(0.7)"/>
     <use xlink:href="#Cmmi10-58" transform="translate(340.357509 -24.637514) scale(0.7)"/>
     <use xlink:href="#Cmr10-29" transform="translate(417.404413 0.084203)"/>
     <use xlink:href="#Cmr10-64" transform="translate(515.090017 0.084203)"/>
    </g>
   </g>
   <g id="text_16">
    <!-- $X'$ -->
    <g style="fill: #3a5a7c" transform="translate(66.410375 704.807274) scale(0.16 -0.16)">
     <defs>
      <path id="Cmsy10-49" d="M 225 347
Q 184 359 184 409
L 966 3316
Q 1003 3434 1093 3506
Q 1184 3578 1300 3578
Q 1450 3578 1564 3479
Q 1678 3381 1678 3231
Q 1678 3166 1644 3084
L 488 319
Q 466 275 428 275
Q 394 275 320 306
Q 247 338 225 347
z
" transform="scale(0.015625)"/>
     </defs>
     <use xlink:href="#Cmmi10-85" transform="translate(0 0.576391)"/>
     <use xlink:href="#Cmsy10-49" transform="translate(99.138932 41.865625) scale(0.7)"/>
    </g>
   </g>
   <g id="text_17">
    <!-- $u'$ -->
    <g style="fill: #28776b" transform="translate(25.264906 642.036396) scale(0.16 -0.16)">
     <use xlink:href="#Cmmi10-60" transform="translate(0 0.576391)"/>
     <use xlink:href="#Cmsy10-49" transform="translate(68.437916 41.865625) scale(0.7)"/>
    </g>
   </g>
   <g id="text_18">
    <!-- Projection covers the entire plane -->
    <g style="fill: #28776b" transform="translate(81.924804 786.188938) scale(0.12 -0.12)">
     <defs>
      <path id="ArialMT-33" d="M 494 0
L 494 4581
L 2222 4581
Q 2678 4581 2919 4538
Q 3256 4481 3484 4323
Q 3713 4166 3852 3881
Q 3991 3597 3991 3256
Q 3991 2672 3619 2267
Q 3247 1863 2275 1863
L 1100 1863
L 1100 0
L 494 0
z
M 1100 2403
L 2284 2403
Q 2872 2403 3119 2622
Q 3366 2841 3366 3238
Q 3366 3525 3220 3729
Q 3075 3934 2838 4000
Q 2684 4041 2272 4041
L 1100 4041
L 1100 2403
z
" transform="scale(0.015625)"/>
      <path id="ArialMT-4d" d="M 419 3928
L 419 4581
L 981 4581
L 981 3928
L 419 3928
z
M -294 -1288
L -188 -809
Q -19 -853 78 -853
Q 250 -853 334 -739
Q 419 -625 419 -169
L 419 3319
L 981 3319
L 981 -181
Q 981 -794 822 -1034
Q 619 -1347 147 -1347
Q -81 -1347 -294 -1288
z
" transform="scale(0.015625)"/>
      <path id="ArialMT-59" d="M 1344 0
L 81 3319
L 675 3319
L 1388 1331
Q 1503 1009 1600 663
Q 1675 925 1809 1294
L 2547 3319
L 3125 3319
L 1869 0
L 1344 0
z
" transform="scale(0.015625)"/>
      <path id="ArialMT-53" d="M 422 -1272
L 422 3319
L 934 3319
L 934 2888
Q 1116 3141 1344 3267
Q 1572 3394 1897 3394
Q 2322 3394 2647 3175
Q 2972 2956 3137 2557
Q 3303 2159 3303 1684
Q 3303 1175 3120 767
Q 2938 359 2589 142
Q 2241 -75 1856 -75
Q 1575 -75 1351 44
Q 1128 163 984 344
L 984 -1272
L 422 -1272
z
M 931 1641
Q 931 1000 1190 694
Q 1450 388 1819 388
Q 2194 388 2461 705
Q 2728 1022 2728 1688
Q 2728 2322 2467 2637
Q 2206 2953 1844 2953
Q 1484 2953 1207 2617
Q 931 2281 931 1641
z
" transform="scale(0.015625)"/>
     </defs>
     <use xlink:href="#ArialMT-33"/>
     <use xlink:href="#ArialMT-55" transform="translate(66.703125 0)"/>
     <use xlink:href="#ArialMT-52" transform="translate(100 0)"/>
     <use xlink:href="#ArialMT-4d" transform="translate(155.609375 0)"/>
     <use xlink:href="#ArialMT-48" transform="translate(177.828125 0)"/>
     <use xlink:href="#ArialMT-46" transform="translate(233.4375 0)"/>
     <use xlink:href="#ArialMT-57" transform="translate(283.4375 0)"/>
     <use xlink:href="#ArialMT-4c" transform="translate(311.21875 0)"/>
     <use xlink:href="#ArialMT-52" transform="translate(333.4375 0)"/>
     <use xlink:href="#ArialMT-51" transform="translate(389.046875 0)"/>
     <use xlink:href="#ArialMT-3" transform="translate(444.65625 0)"/>
     <use xlink:href="#ArialMT-46" transform="translate(472.4375 0)"/>
     <use xlink:href="#ArialMT-52" transform="translate(522.4375 0)"/>
     <use xlink:href="#ArialMT-59" transform="translate(578.046875 0)"/>
     <use xlink:href="#ArialMT-48" transform="translate(628.046875 0)"/>
     <use xlink:href="#ArialMT-55" transform="translate(683.65625 0)"/>
     <use xlink:href="#ArialMT-56" transform="translate(716.953125 0)"/>
     <use xlink:href="#ArialMT-3" transform="translate(766.953125 0)"/>
     <use xlink:href="#ArialMT-57" transform="translate(794.734375 0)"/>
     <use xlink:href="#ArialMT-4b" transform="translate(822.515625 0)"/>
     <use xlink:href="#ArialMT-48" transform="translate(878.125 0)"/>
     <use xlink:href="#ArialMT-3" transform="translate(933.734375 0)"/>
     <use xlink:href="#ArialMT-48" transform="translate(961.515625 0)"/>
     <use xlink:href="#ArialMT-51" transform="translate(1017.125 0)"/>
     <use xlink:href="#ArialMT-57" transform="translate(1072.734375 0)"/>
     <use xlink:href="#ArialMT-4c" transform="translate(1100.515625 0)"/>
     <use xlink:href="#ArialMT-55" transform="translate(1122.734375 0)"/>
     <use xlink:href="#ArialMT-48" transform="translate(1156.03125 0)"/>
     <use xlink:href="#ArialMT-3" transform="translate(1211.640625 0)"/>
     <use xlink:href="#ArialMT-53" transform="translate(1239.421875 0)"/>
     <use xlink:href="#ArialMT-4f" transform="translate(1295.03125 0)"/>
     <use xlink:href="#ArialMT-44" transform="translate(1317.25 0)"/>
     <use xlink:href="#ArialMT-51" transform="translate(1372.859375 0)"/>
     <use xlink:href="#ArialMT-48" transform="translate(1428.46875 0)"/>
    </g>
   </g>
   <g id="patch_7">
    <path d="M 234.832816 609.568445
Q 225.764558 627.704961 217.5963 644.041477
" style="fill: none; stroke: #c0603c; stroke-width: 1.8; stroke-linecap: round"/>
    <path d="M 222.247321 640.55321
L 217.5963 644.041477
L 217.5963 638.2277
" style="fill: none; stroke: #c0603c; stroke-width: 1.8; stroke-linecap: round"/>
   </g>
   <g id="text_19">
    <!-- $X$ -->
    <g style="fill: #3a5a7c" transform="translate(245.153256 594.828546) scale(0.18 -0.18)">
     <use xlink:href="#Cmmi10-85" transform="translate(0 0.6875)"/>
    </g>
   </g>
   <g id="text_20">
    <!-- $u$ -->
    <g style="fill: #28776b" transform="translate(220.706334 642.879393) scale(0.18 -0.18)">
     <use xlink:href="#Cmmi10-60" transform="translate(0 0.8125)"/>
    </g>
   </g>
   <g id="text_21">
    <!-- $S=(-1,0)$ -->
    <g style="fill: #c0603c" transform="translate(181.928457 748.254059) scale(0.15 -0.15)">
     <use xlink:href="#Cmmi10-43"/>
     <use xlink:href="#Cmr10-29" transform="translate(81.279354 0)"/>
     <use xlink:href="#Cmr10-77" transform="translate(178.964958 0)"/>
     <use xlink:href="#Cmsy10-11" transform="translate(217.783318 0)"/>
     <use xlink:href="#Cmr10-64" transform="translate(295.468864 0)"/>
     <use xlink:href="#Cmmi10-2c" transform="translate(345.468864 0)"/>
     <use xlink:href="#Cmr10-28" transform="translate(393.154469 0)"/>
     <use xlink:href="#Cmr10-44" transform="translate(443.154469 0)"/>
    </g>
   </g>
   <g id="text_22">
    <!-- $u=\frac{X_s}{1+X_0}$ -->
    <g style="fill: #1e2a36" transform="translate(129.809492 813.164853) scale(0.21 -0.21)">
     <use xlink:href="#Cmmi10-60" transform="translate(0 0.755027)"/>
     <use xlink:href="#Cmr10-29" transform="translate(77.177792 0.755027)"/>
     <use xlink:href="#Cmmi10-85" transform="translate(240.113396 46.18125) scale(0.7)"/>
     <use xlink:href="#Cmmi10-58" transform="translate(298.082146 35.681277) scale(0.49)"/>
     <use xlink:href="#Cmr10-64" transform="translate(181.113396 -31.438723) scale(0.7)"/>
     <use xlink:href="#Cmr10-4c" transform="translate(230.113436 -31.438723) scale(0.7)"/>
     <use xlink:href="#Cmmi10-85" transform="translate(298.493359 -31.438723) scale(0.7)"/>
     <use xlink:href="#Cmr10-28" transform="translate(356.462109 -41.938697) scale(0.49)"/>
     <path d="M 181.113396 22.630027
L 181.113396 28.880027
L 384.966399 28.880027
L 384.966399 22.630027
L 181.113396 22.630027
z
"/>
    </g>
   </g>
   <g id="PathCollection_5">
    <defs>
     <path id="m16d67da80b" d="M 0 3.316625
C 0.879579 3.316625 1.723251 2.967164 2.345208 2.345208
C 2.967164 1.723251 3.316625 0.879579 3.316625 0
C 3.316625 -0.879579 2.967164 -1.723251 2.345208 -2.345208
C 1.723251 -2.967164 0.879579 -3.316625 0 -3.316625
C -0.879579 -3.316625 -1.723251 -2.967164 -2.345208 -2.345208
C -2.967164 -1.723251 -3.316625 -0.879579 -3.316625 0
C -3.316625 0.879579 -2.967164 1.723251 -2.345208 2.345208
C -1.723251 2.967164 -0.879579 3.316625 0 3.316625
z
" style="stroke: #3a5a7c"/>
    </defs>
    <g clip-path="url(#p46ac156616)">
     <use xlink:href="#m16d67da80b" x="93.154354" y="685.418335" style="fill: #3a5a7c; stroke: #3a5a7c"/>
    </g>
   </g>
   <g id="PathCollection_6">
    <defs>
     <path id="m5d2a013c07" d="M 0 3.316625
C 0.879579 3.316625 1.723251 2.967164 2.345208 2.345208
C 2.967164 1.723251 3.316625 0.879579 3.316625 0
C 3.316625 -0.879579 2.967164 -1.723251 2.345208 -2.345208
C 1.723251 -2.967164 0.879579 -3.316625 0 -3.316625
C -0.879579 -3.316625 -1.723251 -2.967164 -2.345208 -2.345208
C -2.967164 -1.723251 -3.316625 -0.879579 -3.316625 0
C -3.316625 0.879579 -2.967164 1.723251 -2.345208 2.345208
C -1.723251 2.967164 -0.879579 3.316625 0 3.316625
z
" style="stroke: #28776b"/>
    </defs>
    <g clip-path="url(#p46ac156616)">
     <use xlink:href="#m5d2a013c07" x="44.519893" y="652.995361" style="fill: #28776b; stroke: #28776b"/>
    </g>
   </g>
   <g id="PathCollection_7">
    <g clip-path="url(#p46ac156616)">
     <use xlink:href="#mdf618344b2" x="238.409277" y="602.415522" style="fill: #3a5a7c; stroke: #3a5a7c"/>
    </g>
   </g>
   <g id="PathCollection_8">
    <g clip-path="url(#p46ac156616)">
     <use xlink:href="#m000e506480" x="213.119358" y="652.995361" style="fill: #28776b; stroke: #28776b"/>
    </g>
   </g>
   <g id="PathCollection_9">
    <g clip-path="url(#p46ac156616)">
     <use xlink:href="#md09ba87de2" x="170.969492" y="737.295094" style="fill: #c0603c; stroke: #c0603c"/>
    </g>
   </g>
  </g>
 </g>
 <defs>
  <clipPath id="p28c6c51e28">
   <rect x="10.8" y="10.8" width="320.338983" height="320.338983"/>
  </clipPath>
  <clipPath id="p46ac156616">
   <rect x="10.8" y="446.461017" width="320.338983" height="320.338983"/>
  </clipPath>
 </defs>
</svg>
